<svg width="391" height="150" viewBox="0 0 391 150" fill="none" xmlns="http://www.w3.org/2000/svg">
<g style="mix-blend-mode:soft-light">
<path opacity="0.0526316" d="M30.1172 -92.2477C30.1173 -203.884 104.44 -294.291 196.021 -294.292C287.601 -294.292 361.925 -203.884 361.925 -92.2477C361.925 19.3888 287.601 109.797 196.021 109.797C104.44 109.797 30.1172 19.3887 30.1172 -92.2477Z" stroke="white" stroke-width="0.521333"/>
<path opacity="0.105263" d="M30.7487 -103.762C42.9674 -214.975 126.904 -299.88 218.135 -293.524C309.365 -287.168 373.512 -191.946 361.293 -80.7337C349.074 30.479 265.138 115.384 173.907 109.028C82.6764 102.672 18.5301 7.45065 30.7487 -103.762Z" stroke="white" stroke-width="0.521333"/>
<path opacity="0.157895" d="M32.6397 -115.19C56.9847 -225.135 149.896 -303.89 240.081 -291.227C330.266 -278.564 383.748 -179.254 359.403 -69.309C335.058 40.6359 242.147 119.391 151.962 106.728C61.7769 94.0646 8.29464 -5.24535 32.6397 -115.19Z" stroke="white" stroke-width="0.521333"/>
<path opacity="0.210526" d="M35.7733 -126.441C72.0609 -234.283 173.24 -306.287 261.691 -287.414C350.143 -268.541 392.555 -165.899 356.268 -58.0566C319.98 49.7854 218.801 121.789 130.35 102.916C41.8992 84.0428 -0.514087 -18.5989 35.7733 -126.441Z" stroke="white" stroke-width="0.521333"/>
<path opacity="0.263158" d="M40.1278 -137.433C88.0836 -242.353 196.761 -307.055 282.804 -282.118C368.846 -257.18 399.869 -151.987 351.913 -47.0668C303.958 57.8531 195.28 122.556 109.238 97.618C23.1954 72.6799 -7.82793 -32.5129 40.1278 -137.433Z" stroke="white" stroke-width="0.521333"/>
<path opacity="0.315789" d="M45.6697 -148.08C75.2922 -198.666 118.947 -238.201 165.569 -261.232C212.191 -284.263 261.764 -290.783 303.257 -275.375C344.749 -259.968 370.342 -225.537 378.154 -182.293C385.967 -139.049 375.995 -87.0071 346.373 -36.4208C316.75 14.1657 273.095 53.7014 226.473 76.7322C179.851 99.7629 130.278 106.283 88.7857 90.8761C47.2931 75.4688 21.7002 41.0374 13.8874 -2.20643C6.07471 -45.4504 16.047 -97.4933 45.6697 -148.08Z" stroke="white" stroke-width="0.521333"/>
<path opacity="0.368421" d="M52.3553 -158.298C87.4037 -206.639 135.222 -242.995 184.189 -262.703C233.156 -282.411 283.251 -285.464 322.895 -267.238C362.538 -249.012 384.265 -212.939 387.315 -169.316C390.365 -125.693 374.735 -74.5381 339.686 -26.1976C304.638 22.1428 256.82 58.4989 207.853 78.2069C158.886 97.9149 108.792 100.969 69.148 82.7426C29.5042 64.5164 7.77732 28.4425 4.72718 -15.1805C1.67713 -58.8033 17.3071 -109.958 52.3553 -158.298Z" stroke="white" stroke-width="0.521333"/>
<path opacity="0.421053" d="M60.1345 -168.017C100.342 -213.744 151.96 -246.645 202.899 -262.88C253.839 -279.115 304.075 -278.678 341.568 -257.773C379.06 -236.868 396.757 -199.426 395.021 -155.756C393.285 -112.086 372.114 -62.2081 331.907 -16.4818C291.699 29.2445 240.081 62.145 189.142 78.38C138.202 94.6152 87.9672 94.1786 50.4742 73.2731C12.9812 52.3676 -4.71547 14.9267 -2.97943 -28.7439C-1.24341 -72.4136 19.9269 -122.291 60.1345 -168.017Z" stroke="white" stroke-width="0.521333"/>
<path opacity="0.473684" d="M68.9493 -177.155C114.011 -219.918 169.036 -249.112 221.559 -261.751C274.085 -274.389 324.078 -270.467 359.135 -247.042C394.192 -223.618 407.724 -185.094 401.215 -141.708C394.706 -98.3232 368.156 -50.1028 323.094 -7.33889C278.032 35.425 223.008 64.619 170.484 77.2573C117.958 89.8961 67.9657 85.9732 32.9087 62.5486C-2.14813 39.1241 -15.6808 0.600371 -9.17134 -42.7857C-2.66201 -86.1702 23.8877 -134.391 68.9493 -177.155Z" stroke="white" stroke-width="0.521333"/>
<path opacity="0.526316" d="M78.7293 -185.652C128.302 -225.127 186.315 -250.393 240.025 -259.338C293.737 -268.284 343.106 -260.904 375.46 -235.14C407.814 -209.375 417.081 -170.062 405.848 -127.291C394.614 -84.5219 362.886 -38.3254 313.313 1.15014C263.74 40.6257 205.727 65.8912 152.018 74.8364C98.3059 83.7821 48.9372 76.4027 16.5828 50.6387C-15.7716 24.8746 -25.0391 -14.4388 -13.8052 -57.2104C-2.57188 -99.9795 29.1563 -146.176 78.7293 -185.652Z" stroke="white" stroke-width="0.521333"/>
<path opacity="0.578947" d="M89.4017 -193.433C143.109 -229.319 203.669 -250.463 258.154 -255.647C312.644 -260.831 361.013 -250.051 390.419 -222.144C419.826 -194.238 424.758 -154.434 408.884 -112.603C393.012 -70.7745 356.347 -26.9541 302.64 8.93211C248.933 44.8185 188.373 65.9626 133.887 71.1464C79.3969 76.3306 31.0279 65.551 1.62164 37.6443C-27.7846 9.73761 -32.7166 -30.0659 -16.8432 -71.8976C-0.970991 -113.726 35.6944 -157.546 89.4017 -193.433Z" stroke="white" stroke-width="0.521333"/>
<path opacity="0.631579" d="M100.886 -200.441C158.318 -232.465 220.965 -249.325 275.812 -250.708C330.666 -252.091 377.667 -237.995 403.902 -208.159C430.137 -178.323 430.697 -138.331 410.304 -97.7575C389.913 -57.1888 348.59 -16.0778 291.158 15.9457C233.725 47.9692 171.078 64.8299 116.231 66.2126C61.3773 67.5954 14.376 53.4986 -11.8592 23.6626C-38.0942 -6.17335 -38.6533 -46.1646 -18.2606 -86.7379C2.12994 -127.307 43.4528 -168.418 100.886 -200.441Z" stroke="white" stroke-width="0.521333"/>
<path opacity="0.684211" d="M113.092 -206.627C173.814 -234.544 238.069 -246.993 292.861 -244.564C347.661 -242.134 392.936 -224.828 415.801 -193.291C438.667 -161.753 434.85 -121.878 410.093 -82.8717C385.339 -43.8712 339.672 -5.78341 278.951 22.1333C218.229 50.0499 153.973 62.4994 99.1811 60.07C44.3816 57.6403 -0.892561 40.3341 -23.7582 8.7968C-46.6238 -22.7406 -42.8078 -62.616 -18.0506 -101.622C6.70336 -140.623 52.3709 -178.711 113.092 -206.627Z" stroke="white" stroke-width="0.521333"/>
<path opacity="0.736842" d="M125.929 -211.945C189.476 -235.542 254.852 -243.485 309.171 -237.262C363.5 -231.038 406.704 -210.654 426.027 -177.656C445.351 -144.657 437.188 -105.201 408.254 -68.0589C379.325 -30.9237 329.661 3.85128 266.113 27.4482C202.566 51.045 137.19 58.9871 82.8712 52.7641C28.5427 46.54 -14.661 26.1574 -33.9845 -6.84122C-53.3081 -39.8399 -45.1457 -79.2971 -16.2114 -116.439C12.7177 -153.574 62.3813 -188.348 125.929 -211.945Z" stroke="white" stroke-width="0.521333"/>
<path opacity="0.789474" d="M139.299 -216.35C205.189 -235.448 271.187 -238.823 324.619 -228.853C378.063 -218.882 418.867 -195.577 434.503 -161.369C450.139 -127.16 437.692 -88.4214 404.801 -53.4272C371.917 -18.4402 318.635 12.7562 252.745 31.8533C186.855 50.9504 120.857 54.3255 67.4243 44.356C13.9808 34.3845 -26.8238 11.0796 -42.4596 -23.1291C-58.0952 -57.3377 -45.6485 -96.0758 -12.7577 -131.07C20.1266 -166.057 73.4086 -197.253 139.299 -216.35Z" stroke="white" stroke-width="0.521333"/>
<path opacity="0.842105" d="M153.098 -219.811C220.828 -234.262 286.946 -233.045 339.086 -219.404C391.237 -205.761 429.333 -179.713 441.163 -144.554C452.994 -109.395 436.357 -71.6687 399.76 -39.0888C363.17 -6.51663 306.675 20.8632 238.945 35.315C171.214 49.7667 105.097 48.5488 52.9578 34.9086C0.806354 21.2652 -37.2892 -4.78277 -49.1198 -39.9418C-60.9504 -75.1009 -44.3141 -112.827 -7.71628 -145.407C28.8728 -177.979 85.3673 -205.359 153.098 -219.811Z" stroke="white" stroke-width="0.521333"/>
<path opacity="0.894737" d="M167.224 -222.303C236.279 -232 302.013 -226.198 352.462 -208.99C402.923 -191.779 438.02 -163.186 445.957 -127.343C453.893 -91.5006 433.194 -55.0732 393.168 -25.1562C353.152 4.75312 293.875 28.1082 224.82 37.8044C155.764 47.5005 90.0303 41.6984 39.5818 24.4913C-10.8796 7.27974 -45.9766 -21.3133 -53.9133 -57.1559C-61.8499 -92.9985 -41.1502 -129.426 -1.12455 -159.343C38.8909 -189.252 98.1684 -212.607 167.224 -222.303Z" stroke="white" stroke-width="0.521333"/>
<path opacity="0.947368" d="M181.568 -223.805C251.423 -228.671 316.271 -218.329 364.645 -197.686C413.032 -177.037 444.864 -146.117 448.848 -109.863C452.831 -73.608 428.224 -38.7564 385.075 -11.7305C341.938 15.2879 280.33 34.4405 210.476 39.3072C140.621 44.1739 75.7719 33.8313 27.3983 13.1882C-20.9885 -7.46053 -52.8213 -38.3802 -56.8046 -74.6349C-60.7878 -110.89 -36.181 -145.741 6.96787 -172.767C50.1051 -199.786 111.714 -218.938 181.568 -223.805Z" stroke="white" stroke-width="0.521333"/>
<path d="M196.021 -224.306C266.142 -224.306 329.613 -209.503 375.543 -185.581C421.486 -161.652 449.814 -128.641 449.814 -92.2488C449.814 -55.8564 421.486 -22.8453 375.543 1.08326C329.613 25.0052 266.142 39.8098 196.021 39.8098C125.899 39.8098 62.4295 25.0051 16.4993 1.08326C-29.4438 -22.8453 -57.7712 -55.8563 -57.7712 -92.2488C-57.7711 -128.641 -29.4437 -161.652 16.4993 -185.581C62.4295 -209.503 125.899 -224.306 196.021 -224.306Z" stroke="white" stroke-width="0.521333"/>
</g>
</svg>
